<svg xmlns="http://www.w3.org/2000/svg"><defs><font id="icomoon" horiz-adv-x="1024"><font-face units-per-em="1024" ascent="960" descent="-64"/><glyph horiz-adv-x="512"/><glyph unicode="" glyph-name="add" d="M522.668 448a234.664 234.664 0 0 0-216.804 144.865 234.673 234.673 0 0 0-13.356 135.583 234.67 234.67 0 0 0 425.277 84.592 234.678 234.678 0 0 0 39.547-130.374 235.096 235.096 0 0 0-234.665-234.668zm0 426.668a191.995 191.995 0 0 1-177.385-118.525 191.988 191.988 0 0 1-10.926-110.933 192.01 192.01 0 0 1 150.854-150.854c37.243-7.409 75.85-3.607 110.932 10.926s65.07 39.142 86.167 70.715a192.003 192.003 0 0 1 32.358 106.67 192.428 192.428 0 0 1-192 192zm-384-768a21.333 21.333 0 0 0-21.333 21.335 363.098 363.098 0 0 0 106.348 256.32 363.096 363.096 0 0 0 256.318 106.345h85.335a21.325 21.325 0 0 0 15.084-6.246 21.336 21.336 0 0 0 0-30.17 21.328 21.328 0 0 0-15.084-6.249h-85.335a320.001 320.001 0 0 1-319.999-320 21.332 21.332 0 0 0-21.333-21.335zm576-128A21.336 21.336 0 0 0 693.335.003v341.332a21.336 21.336 0 0 0 6.249 15.086c3.999 4.001 9.426 6.246 15.084 6.246s11.085-2.245 15.086-6.246A21.341 21.341 0 0 0 736 341.335V.003a21.345 21.345 0 0 0-6.246-15.086 21.336 21.336 0 0 0-15.086-6.249zm170.667 170.664H544.003a21.336 21.336 0 0 0-15.086 36.419A21.332 21.332 0 0 0 544.003 192h341.332a21.328 21.328 0 0 0 21.332-21.333 21.333 21.333 0 0 0-21.332-21.335z"/><glyph unicode="" glyph-name="circles" d="M512.002 317.016a130.993 130.993 0 0 0-121.017 80.86 130.997 130.997 0 0 0 28.394 142.748 130.997 130.997 0 0 0 142.748 28.394 130.97 130.97 0 0 0 58.785-48.243 130.979 130.979 0 0 0 22.077-72.772 131.414 131.414 0 0 0-130.986-130.987zm0 219.306a88.321 88.321 0 1 1 88.321-88.32 88.323 88.323 0 0 1-88.32 88.32zM512 170.669a277.332 277.332 0 1 0 277.333 277.333A277.336 277.336 0 0 0 512 170.669zm0 512a234.658 234.658 0 0 1-216.803-144.864 234.67 234.67 0 0 1-13.356-135.582 234.667 234.667 0 0 1 464.824 45.779 235.095 235.095 0 0 1-234.667 234.667zm.002-658.347a423.685 423.685 0 0 0-235.386 71.402A423.686 423.686 0 0 0 96.462 530.656 423.682 423.682 0 0 0 429.345 863.54a423.677 423.677 0 0 0 434.932-180.155 423.677 423.677 0 0 0 71.404-235.383 424.102 424.102 0 0 0-423.68-423.68zm0 804.693a381.01 381.01 0 0 1-352.011-235.207A381.013 381.013 0 1 1 512 829.014z"/><glyph unicode="" glyph-name="comments" d="M558.08 96.435a362.242 362.242 0 0 0-166.826 40.531 21.366 21.366 0 0 0-11.485 20.787 21.375 21.375 0 0 0 31.11 17.188 320.829 320.829 0 0 1 223.635-25.216 320.84 320.84 0 0 1 185.187 127.888 320.828 320.828 0 0 1 55.626 218.07 320.847 320.847 0 0 1-309.692 285.95 320.848 320.848 0 0 1-212.95-72.807 320.848 320.848 0 0 1-69.805-415.701 21.756 21.756 0 0 0 2.345-16.189 21.767 21.767 0 0 0-9.598-13.251c-2.405-1.469-5.078-2.448-7.865-2.88a21.313 21.313 0 0 0-15.949 3.93 21.353 21.353 0 0 0-5.626 6.205 362.66 362.66 0 0 0 78.863 473.52 362.66 362.66 0 0 0 243.517 80.941 362.678 362.678 0 0 0 236.128-100.488 362.664 362.664 0 0 0 101.85-366.751 362.65 362.65 0 0 0-104.704-167.834 362.66 362.66 0 0 0-177.2-87.923 354.223 354.223 0 0 0-66.56-5.971zM226.987 74.25a50.336 50.336 0 0 0-23.598 6.381 50.329 50.329 0 0 0-25.635 39.904 50.354 50.354 0 0 0 4.006 24.115l64.853 145.92a21.753 21.753 0 0 0 12.111 11.181 21.753 21.753 0 0 0 16.476-.515 21.327 21.327 0 0 0 11.15-11.875 21.337 21.337 0 0 0-.483-16.285l-65.28-145.92a6.395 6.395 0 0 1 0-7.68 7.239 7.239 0 0 1 3.521-2.214 7.246 7.246 0 0 1 4.159.08l164.268 58.454a20.908 20.908 0 0 0 8.25 1.382 20.909 20.909 0 0 0 14.838-6.957 20.92 20.92 0 0 0 4.218-7.226 21.33 21.33 0 0 0-12.8-27.306L244.054 77.235a47.785 47.785 0 0 0-17.067-2.986z"/><glyph unicode="" glyph-name="cup" d="M512 284.158a235.094 235.094 0 0 0-235.094 235.094v285.012a179.946 179.946 0 0 0 0 26.453 20.92 20.92 0 0 0 7.894 14.085 20.897 20.897 0 0 0 15.572 4.262 21.334 21.334 0 0 0 18.773-23.467 174.13 174.13 0 0 1 0-21.333V519.252a192.433 192.433 0 0 1 192-179.622 192.423 192.423 0 0 1 131.46 51.907 192.415 192.415 0 0 1 60.54 127.715v285.012c.439 7.104.439 14.229 0 21.333a21.491 21.491 0 0 0 18.774 23.894 21.484 21.484 0 0 0 23.893-18.773c.651-8.806.651-17.647 0-26.453V519.253a235.09 235.09 0 0 0-233.813-235.094zm236.8 261.117a21.336 21.336 0 0 0-11.093 3.413l-23.04 13.653a21.44 21.44 0 0 0 22.187 36.693l17.493-10.667c131.84 4.267 157.013 160.426 161.707 218.453H107.521c4.693-58.453 28.587-213.333 162.133-218.453l17.493 10.667a21.436 21.436 0 0 0 32.288-15.118 21.415 21.415 0 0 0-.378-8.358 21.439 21.439 0 0 0-9.723-13.217l-23.04-13.653a21.327 21.327 0 0 0-11.093-3.413c-166.827 0-211.2 185.173-211.2 282.88a21.337 21.337 0 0 0 21.333 21.334h853.333A21.338 21.338 0 0 0 960 828.155c0-97.707-44.373-282.88-211.2-282.88zM512 46.502a21.335 21.335 0 0 0-21.333 21.333v237.653a21.333 21.333 0 0 0 42.666 0V67.835A21.335 21.335 0 0 0 512 46.502zm237.656-.003H322.989a21.332 21.332 0 0 0-21.333 21.333 21.321 21.321 0 0 0 6.246 15.084 21.336 21.336 0 0 0 15.087 6.249h426.667a21.333 21.333 0 0 0 0-42.666z"/><glyph unicode="" glyph-name="dribbble" d="M512 935.625c-269.313 0-487.62-218.307-487.62-487.621C24.38 178.692 242.687-39.612 512-39.612s487.62 218.304 487.62 487.616c0 269.314-218.308 487.621-487.62 487.621zm0-70.656c106.227 0 203.191-39.741 276.821-105.131-54.101-71.363-136.29-118.881-218.65-151.04a2171.313 2171.313 0 0 1-156.403 244.541 417.652 417.652 0 0 0 98.257 11.63h-.026zm-177.396-39.497c54.369-81.335 107.031-156.745 155.137-242.103-121.662-31.525-259.147-50.445-386.147-50.761 26.77 129.902 114.03 237.763 231.01 292.84v.024zm500.468-113.859a415.315 415.315 0 0 0 93.892-260.852c-96.452 19.017-192.367 23.991-290.039 14.14-10.97 27.383-24.282 53.397-37.035 81.434 84.19 33.963 174.204 92.087 233.182 165.303v-.024zM523.605 518.857c10.436-22.187 22.528-45.739 33.89-69.803-135.803-59.878-280.26-139.895-355.232-280.183A415.524 415.524 0 0 0 95.231 460.22c145.432.683 288.183 18.871 428.374 58.637zm220.357-113.69a710.736 710.736 0 0 0 179.806-23.159 416.932 416.932 0 0 0-60.437-158.66 416.985 416.985 0 0 0-118.686-121.404c-22.383 101.79-43.716 199.194-81.434 297.399a559.85 559.85 0 0 0 80.725 5.85l.026-.026zm181.977-7.556c-.294-2.389-.559-4.732-.9-7.07.341 2.364.631 4.706.9 7.07zm-339.87-17.31c38.426-99.302 68.582-209.263 88.819-316.271a415.554 415.554 0 0 0-162.863-33.011 415.154 415.154 0 0 0-255.88 87.77c75.508 122.492 192.465 215.189 329.898 261.487l.026.026z"/><glyph unicode="" glyph-name="facebook" d="M571.605 64.119v349.696h117.973l17.536 136.919H571.605v87.211c0 39.509 11.008 66.56 67.712 66.56h71.851v122.069a952.788 952.788 0 0 1-105.259 5.419c-104.277 0-175.872-63.659-175.872-180.523V550.99H312.833V414.071h117.46V64.119h141.312z"/><glyph unicode="" glyph-name="gear" d="M511.998 3.84a105.822 105.822 0 0 0-81.066 37.547l-37.547 42.667a64.418 64.418 0 0 1-52.053 22.613l-57.173-5.12a106.674 106.674 0 0 0-84.155 30.733 106.679 106.679 0 0 0-31.044 84.041l1.707 58.453c.794 10.116-.844 20.275-4.778 29.628s-10.049 17.627-17.835 24.132l-42.667 37.12a106.247 106.247 0 0 0 0 162.559l42.667 37.547a64.426 64.426 0 0 1 22.614 52.906l-4.267 58.453a106.659 106.659 0 0 0 30.733 84.156 106.663 106.663 0 0 0 84.04 31.044l57.6-2.987a63.575 63.575 0 0 1 53.76 20.906l37.12 42.667c9.95 12.248 22.504 22.125 36.747 28.915s29.82 10.322 45.6 10.338a105.808 105.808 0 0 0 81.066-37.546l37.547-42.667a65.297 65.297 0 0 1 52.053-22.613l57.173 5.12a106.653 106.653 0 0 0 45.461-6.103 106.654 106.654 0 0 0 63.468-63.233 106.637 106.637 0 0 0 6.271-45.438l-1.707-58.453a63.609 63.609 0 0 1 4.779-29.625 63.607 63.607 0 0 1 17.835-24.135l42.667-37.12a106.245 106.245 0 0 0 37.827-81.278 106.249 106.249 0 0 0-37.827-81.281l-42.667-37.547a64.422 64.422 0 0 1-22.614-52.906l5.12-57.6a106.644 106.644 0 0 0-6.103-45.461 106.672 106.672 0 0 0-108.671-69.739l-58.453 2.133a63.956 63.956 0 0 1-29.603-4.827 63.997 63.997 0 0 1-24.157-17.786l-37.12-42.667A106.235 106.235 0 0 0 513.28 3.412l-1.28.427zm-166.4 145.493a105.779 105.779 0 0 0 44.69-9.799 105.754 105.754 0 0 0 36.376-27.748l37.547-42.667a62.734 62.734 0 0 1 48.64-22.613 65.654 65.654 0 0 1 26.965 6.032 65.691 65.691 0 0 1 22.101 16.581l37.12 42.667a104.109 104.109 0 0 0 89.6 37.547l57.6-4.267a62.742 62.742 0 0 1 27.234 3.525 62.753 62.753 0 0 1 23.113 14.821 64.42 64.42 0 0 1 18.347 50.774l-4.267 58.453a105.42 105.42 0 0 0 7.346 49.498 105.405 105.405 0 0 0 29.347 40.528l42.667 37.547a62.714 62.714 0 0 1 23.467 47.787c-.076 9.314-2.131 18.505-6.029 26.965s-9.55 15.994-16.584 22.101l-42.667 37.12a104.547 104.547 0 0 0-37.546 90.454l4.267 57.6a63.136 63.136 0 0 1-18.347 50.347 64.002 64.002 0 0 1-50.773 18.347l-58.453-4.267a104.096 104.096 0 0 0-49.559 7.193 104.131 104.131 0 0 0-40.468 29.5l-37.547 42.667a62.723 62.723 0 0 1-47.787 23.466 65.701 65.701 0 0 1-49.067-22.613l-37.12-42.667a104.975 104.975 0 0 0-40.577-29.97 104.97 104.97 0 0 0-49.876-7.577l-57.6 4.267a63.139 63.139 0 0 1-50.345-18.347 64.425 64.425 0 0 1-18.347-52.054l4.267-57.173a105.384 105.384 0 0 0-36.694-90.027l-42.667-37.547a62.713 62.713 0 0 1-23.466-47.787 65.718 65.718 0 0 1 6.03-26.965 65.733 65.733 0 0 1 16.583-22.101l42.667-37.12a104.528 104.528 0 0 0 37.547-90.454l-4.267-57.6a63.136 63.136 0 0 1 18.347-50.346 63.984 63.984 0 0 1 50.772-18.346l58.453 4.267h8.96zM512 298.667a149.325 149.325 0 0 0-105.594 43.739C378.4 370.41 362.667 408.393 362.667 448s15.733 77.59 43.739 105.594C434.41 581.6 472.393 597.333 512 597.333s77.59-15.733 105.594-43.739C645.6 525.59 661.333 487.607 661.333 448s-15.733-77.59-43.739-105.594A149.325 149.325 0 0 0 512 298.667zm0 256a106.666 106.666 0 0 1-75.425-182.092A106.666 106.666 0 0 1 618.667 448 106.666 106.666 0 0 1 512 554.667z"/><glyph unicode="" glyph-name="head" d="M512 8.107a439.89 439.89 0 0 0-85.819 871.332 439.884 439.884 0 0 0 451.576-187.05 439.872 439.872 0 0 0 74.135-244.39A440.316 440.316 0 0 0 511.999 8.106zm0 837.119a397.228 397.228 0 0 1-77.496-786.821 397.223 397.223 0 0 1 229.508 22.606A397.218 397.218 0 0 1 909.226 448a398.062 398.062 0 0 1-116.595 280.632 398.074 398.074 0 0 1-280.632 116.594zM346.027 277.333a117.33 117.33 0 0 0-82.965 200.3 117.34 117.34 0 0 0 180.527-17.779 117.333 117.333 0 0 0 10.842-110.089 117.417 117.417 0 0 0-25.434-38.066 117.396 117.396 0 0 0-38.066-25.434 117.368 117.368 0 0 0-44.902-8.931zm0 192a74.688 74.688 0 0 1-41.696-12.746 74.684 74.684 0 0 1-27.468-33.86 74.677 74.677 0 0 1-3.874-43.43 74.686 74.686 0 0 1 21.043-38.188A74.664 74.664 0 0 1 420.693 396.8a75.086 75.086 0 0 1-21.994 52.673 75.086 75.086 0 0 1-52.673 21.994v-2.133zm331.946-192a117.33 117.33 0 0 0-115.078 140.225 117.334 117.334 0 1 0 115.079-140.224zm0 192a74.665 74.665 0 0 1-68.984-46.092 74.682 74.682 0 0 1-4.25-43.142 74.68 74.68 0 0 1 58.665-58.665 74.66 74.66 0 0 1 76.651 31.752 74.665 74.665 0 0 1 12.583 41.482 74.641 74.641 0 0 1-21.102 54.181 74.662 74.662 0 0 1-53.565 22.619v-2.133zm-574.718 48.64a21.334 21.334 0 0 0-20.907 17.067 21.757 21.757 0 0 0 16.64 25.173c4.693.853 466.345 101.12 590.508 271.787a21.322 21.322 0 0 0 22.296 8.208 21.347 21.347 0 0 0 7.57-3.515c4.498-3.399 7.504-8.413 8.38-13.985s-.446-11.265-3.689-15.882C590.08 622.932 128.001 522.666 107.948 518.399l-4.693-.427zm707.412 70.825a859.78 859.78 0 0 0-307.2 67.84c-5.205 2.265-9.299 6.502-11.379 11.783s-1.977 11.171.285 16.377a21.402 21.402 0 0 0 28.16 11.094c2.133 0 202.24-89.173 370.347-57.6a21.756 21.756 0 0 0 25.173-17.067 21.324 21.324 0 0 0-3.435-15.889 21.342 21.342 0 0 0-13.631-8.858 458.805 458.805 0 0 0-88.32-7.68zM581.973 375.467H442.026a21.339 21.339 0 0 0-21.333 21.333 21.767 21.767 0 0 0 6.368 14.965 21.762 21.762 0 0 0 14.965 6.368h139.947a21.758 21.758 0 0 0 21.333-21.333 21.333 21.333 0 0 0-21.333-21.333zm-331.946 0H96.854A21.333 21.333 0 0 0 75.52 396.8a21.76 21.76 0 0 0 21.333 21.333h153.173a21.336 21.336 0 0 0 15.087-6.249 21.34 21.34 0 0 0 0-30.168 21.336 21.336 0 0 0-15.087-6.249zm677.546 0h-153.6A21.339 21.339 0 0 0 752.64 396.8a21.335 21.335 0 0 0 21.333 21.333h153.6a21.335 21.335 0 0 0 21.333-21.333 21.333 21.333 0 0 0-21.333-21.333z"/><glyph unicode="" glyph-name="instagram" d="M512.085 62.255c-104.962 0-117.335.555-158.295 2.347a280.89 280.89 0 0 0-93.227 19.2 197.103 197.103 0 0 0-67.907 44.331 197.113 197.113 0 0 0-44.306 67.925 281.214 281.214 0 0 0-17.877 93.312c-2.389 40.875-2.389 54.272-2.389 158.421 0 105.26.555 117.548 2.389 158.294a281.157 281.157 0 0 0 17.877 93.184 196.692 196.692 0 0 0 112.342 112.299 278.765 278.765 0 0 0 93.184 17.92c40.747 2.304 54.144 2.304 158.21 2.304 105.813 0 117.973-.555 158.293-2.304a279.834 279.834 0 0 0 93.44-17.92 196.93 196.93 0 0 0 112.342-112.299c11.392-30.293 17.493-62.293 17.963-94.592 2.389-40.875 2.389-54.229 2.389-158.337s-.597-117.76-2.389-158.165a281.83 281.83 0 0 0-17.92-93.397c-9.929-25.485-25.045-48.627-44.39-67.959s-42.5-34.432-67.994-44.339a282.234 282.234 0 0 0-93.269-17.877c-40.747-2.347-54.101-2.347-158.464-2.347zm-1.45 701.995c-104.365 0-115.202-.512-155.949-2.347a212.9 212.9 0 0 1-71.253-13.269 127.565 127.565 0 0 1-73.302-73.045 213.697 213.697 0 0 1-13.269-71.979c-2.261-41.344-2.261-52.181-2.261-155.82 0-102.4.384-114.816 2.261-155.904a216.143 216.143 0 0 1 13.269-71.253c13.056-33.579 39.68-60.117 73.344-73.003a209.937 209.937 0 0 1 71.211-13.269c41.301-2.389 52.181-2.389 155.949-2.389 104.661 0 115.499.512 155.904 2.389a211.709 211.709 0 0 1 71.253 13.269 128.058 128.058 0 0 1 44.147 28.783 128.062 128.062 0 0 1 28.813 44.134c8.533 23.04 13.013 47.445 13.269 72.021h.469c1.835 40.789 1.835 51.669 1.835 155.904s-.469 115.201-2.304 155.948a215.987 215.987 0 0 1-13.269 71.168 128.01 128.01 0 0 1-72.96 73.046c-22.827 8.533-46.933 12.971-71.253 13.269-41.259 2.347-52.053 2.347-155.904 2.347zm1.45-513.536c-39.019-.026-77.163 11.52-109.617 33.178s-57.755 52.45-72.705 88.491a197.241 197.241 0 0 0 42.657 214.996 197.25 197.25 0 0 0 336.786-139.373 197.557 197.557 0 0 0-57.801-139.371 197.565 197.565 0 0 0-139.319-57.92zm0 325.376a128.013 128.013 0 0 1-71.117-21.572 128.024 128.024 0 0 1-47.142-57.443 128.008 128.008 0 0 1-7.284-73.958c4.939-24.828 17.13-47.633 35.031-65.536s40.707-30.093 65.539-35.029a128.003 128.003 0 0 1 131.4 54.425 128.023 128.023 0 0 1 21.572 71.113c-.081 33.924-13.594 66.436-37.581 90.423s-56.499 37.498-90.419 37.577zm204.8 30.422a45.979 45.979 0 0 0-32.473 13.592 45.974 45.974 0 0 0-13.35 32.573 45.986 45.986 0 0 0 46.165 45.824 45.987 45.987 0 0 0 32.469-13.592 45.998 45.998 0 0 0 13.355-32.573 45.994 45.994 0 0 0-46.166-45.824z"/><glyph unicode="" glyph-name="kinks" d="M170.667 85.333a22.184 22.184 0 0 0-12.373 3.84 20.905 20.905 0 0 0-10.667 17.494V704a21.321 21.321 0 0 0 3.7 12.156 21.326 21.326 0 0 0 9.953 7.897l218.027 85.334a23.468 23.468 0 0 0 15.36 0L601.6 728.32l247.04 81.067a19.63 19.63 0 0 0 19.2-2.987 20.489 20.489 0 0 0 6.377-7.478 20.514 20.514 0 0 0 2.158-9.589V192a20.907 20.907 0 0 0-14.507-20.053l-256-85.334a21.341 21.341 0 0 0-14.507 0l-204.8 80.64-209.92-80.64a24.3 24.3 0 0 0-5.973-1.28zm217.6 128c2.665.635 5.442.635 8.107 0l200.96-84.053 235.946 79.787v550.826l-226.133-74.24a21.341 21.341 0 0 0-14.507 0l-206.08 80.64L190.294 691.2V136.533l189.013 72.107a14.075 14.075 0 0 0 7.253 2.987l1.707 1.706zm-1.707-44.373a21.332 21.332 0 0 0-21.333 21.333v599.04a21.332 21.332 0 1 0 42.666 0V192a21.316 21.316 0 0 0-5.612-16.201 21.34 21.34 0 0 0-7.143-5.069 21.363 21.363 0 0 0-8.578-1.77zm214.614-83.627a21.333 21.333 0 0 0-21.333 21.334V704a21.332 21.332 0 1 0 42.666 0V106.667a21.332 21.332 0 0 0-21.333-21.334z"/><glyph unicode="" glyph-name="linkedin" d="M554.667 64H384v512h170.667v-85.333a197.038 197.038 0 0 0 150.4 75.221A192 192 0 0 0 896 373.334V64.001H725.333v288a96.641 96.641 0 0 1-95.872 82.944 77.436 77.436 0 0 1-70.789-52.228 77.415 77.415 0 0 1-4.006-30.716v-288zm-256 0H128v512h170.667V64zm-85.334 597.333a85.336 85.336 0 0 0-60.34 145.674 85.336 85.336 0 0 0 120.68 0 85.336 85.336 0 0 0 0-120.68 85.336 85.336 0 0 0-60.34-24.994z"/><glyph unicode="" glyph-name="mushroom" d="M441.174 211.2a21.756 21.756 0 0 0-20.405 13.132 21.766 21.766 0 0 0-1.415 12.605 21.768 21.768 0 0 0 5.854 11.252c3.027 3.085 6.902 5.2 11.134 6.075a21.755 21.755 0 0 0 22.466-9.173 21.76 21.76 0 0 0-17.635-33.891zm156.586 0c11.782 0 21.333 9.551 21.333 21.333s-9.551 21.334-21.333 21.334c-11.782 0-21.333-9.552-21.333-21.334s9.551-21.333 21.333-21.333zm11.094-167.68H415.147a189.439 189.439 0 0 0-189.44 189.44 189.439 189.439 0 0 0 189.44 189.44h193.707a189.44 189.44 0 0 0 0-378.88zM415.147 379.733a146.772 146.772 0 1 1 0-293.546h193.707a146.773 146.773 0 1 1 0 293.546H415.147zm438.187-62.293H738.987a21.332 21.332 0 1 0 0 42.667h114.347a78.082 78.082 0 0 1 54.785 22.867 78.082 78.082 0 0 1 22.867 54.785 372.48 372.48 0 0 1-371.627 372.053h-90.026A372.48 372.48 0 0 1 97.279 437.76a78.079 78.079 0 0 1 77.654-77.652h110.08a21.335 21.335 0 0 0 15.085-36.419 21.334 21.334 0 0 0-15.085-6.248H172.799a120.327 120.327 0 0 0-85.079 35.24 120.325 120.325 0 0 0-35.241 85.08c.056 54.626 10.892 108.703 31.886 159.134s51.736 96.221 90.461 134.748A415.157 415.157 0 0 0 469.332 852.48h90.026a415.149 415.149 0 0 0 414.295-414.293 120.75 120.75 0 0 0-120.32-120.747zM135.253 433.92c-23.3.363-46.32 5.14-67.84 14.08a21.326 21.326 0 0 0-13.463 19.54 21.305 21.305 0 0 0 1.516 8.193 20.483 20.483 0 0 0 27.306 11.946 148.475 148.475 0 0 1 52.48-9.813 138.67 138.67 0 0 1 131.505 97.71 138.667 138.667 0 0 1-53.425 154.876 21.34 21.34 0 0 0-7.13 13.371c-.661 5.179.6 10.42 3.545 14.731s7.367 7.393 12.431 8.663a21.343 21.343 0 0 0 15.048-1.777 181.338 181.338 0 0 0 71.767-203.295A181.33 181.33 0 0 0 135.679 433.92h-.427zm814.508.853a265.82 265.82 0 0 0-174.545 83.978 265.817 265.817 0 0 0-71.215 180.129 258.972 258.972 0 0 0 17.493 94.293 21.332 21.332 0 0 0 27.733 11.947 20.479 20.479 0 0 0 11.866-11.076 20.478 20.478 0 0 0 .08-16.232 222.278 222.278 0 0 1 21.014-196.567 222.297 222.297 0 0 1 169.279-102.1 21.332 21.332 0 1 0 0-42.666l-1.706-1.707z"/><glyph unicode="" glyph-name="pinterest" d="M455.253 315.853c-21.589-116.309-47.871-227.84-125.866-286.08-24.021 175.787 35.371 307.84 62.933 448-47.019 81.494 5.675 245.547 104.831 205.142 122.027-49.749-105.684-303.019 47.189-334.678 159.616-33.024 224.811 285.142 125.824 388.651-143.019 149.376-416.298 3.371-382.676-210.518 8.192-52.309 60.629-68.181 20.949-140.373-91.52 20.949-118.827 95.275-115.285 194.39C198.784 742.52 334.677 856.099 470.954 871.8c172.373 19.883 334.123-65.152 356.437-232.107 25.173-188.416-77.781-392.534-262.059-377.814-49.963 3.968-70.955 29.44-110.08 53.973z"/><glyph unicode="" glyph-name="pointer" d="M504.322 465.92a139.092 139.092 0 0 0-128.504 85.865 139.089 139.089 0 0 0 101.369 189.649 139.095 139.095 0 0 0 166.229-136.42 139.092 139.092 0 0 0-40.741-98.353 139.087 139.087 0 0 0-98.353-40.741zm0 235.52a96.423 96.423 0 0 1-94.573-115.239 96.428 96.428 0 0 1 174.75-34.76 96.432 96.432 0 0 1-80.177 149.999zm240.64-165.549h-3.413a21.761 21.761 0 0 0-16.214 24.32v6.827a94.948 94.948 0 0 1 0 8.96 69.749 69.749 0 0 1 0 13.227v16.64a216.325 216.325 0 0 1-216.32 216.319 216.319 216.319 0 0 1-216.32-216.319v-13.653a59.303 59.303 0 0 1 5.973-16.213v-17.493a21.583 21.583 0 0 0-10.213-21.687 21.574 21.574 0 0 0-32.454 15.286v15.36a98.592 98.592 0 0 0 0 20.907v13.227a258.98 258.98 0 0 0 75.856 183.13 258.984 258.984 0 0 0 442.116-183.13v-15.787a116.196 116.196 0 0 0-2.133-20.907L768 553.812a20.91 20.91 0 0 0-23.04-17.92zM512.002 31.993a20.068 20.068 0 0 0-8.146 1.619 20.059 20.059 0 0 0-6.788 4.781C270.935 264.526 256.001 590.5 253.015 604.153a21.348 21.348 0 0 0 5.639 15.34 21.344 21.344 0 0 0 14.841 6.847 21.32 21.32 0 0 0 15.338-5.639 21.332 21.332 0 0 0 4.901-6.739 21.332 21.332 0 0 0 1.948-8.102c0-2.987 17.493-323.413 231.253-537.6a20.479 20.479 0 0 0 0-29.866 20.06 20.06 0 0 0-14.933-6.4zm0 .002a20.05 20.05 0 0 0-14.933 6.4 20.47 20.47 0 0 0-4.779 23.069 20.5 20.5 0 0 0 4.779 6.797c213.333 213.333 230.827 534.613 231.253 537.6a19.617 19.617 0 0 0 6.287 15.446 19.626 19.626 0 0 0 15.898 5.035 21.759 21.759 0 0 0 20.48-22.186c0-13.653-17.92-341.333-244.053-565.76a20.04 20.04 0 0 0-14.933-6.4z"/><glyph unicode="" glyph-name="radar" d="M512 42.667a405.323 405.323 0 0 0-225.191 68.311 405.337 405.337 0 0 0-61.423 623.636 405.333 405.333 0 0 0 691.947-286.615A405.76 405.76 0 0 0 511.999 42.666zm0 768a362.666 362.666 0 0 1-70.752-718.366 362.669 362.669 0 0 1 433.42 355.698 363.094 363.094 0 0 1-362.667 362.667zm0-584.96a222.299 222.299 0 0 0-123.499 37.462 222.299 222.299 0 0 0-81.873 99.762 222.296 222.296 0 0 0 162.006 303.091 222.272 222.272 0 0 0 128.434-12.651 222.288 222.288 0 0 0 137.226-205.372A222.724 222.724 0 0 0 512 225.706zm0 401.92a179.628 179.628 0 1 1 68.741-345.58 179.629 179.629 0 0 1 110.886 165.954A180.054 180.054 0 0 1 512 627.628zm384-200.96H128a21.332 21.332 0 1 0 0 42.666h768a21.332 21.332 0 1 0 0-42.666zm-384-384A21.332 21.332 0 0 0 490.667 64v768a21.332 21.332 0 1 0 42.667 0V64A21.333 21.333 0 0 0 512 42.667z"/><glyph unicode="" glyph-name="search" d="M415.999 234.667a309.337 309.337 0 0 0-171.945 52.19c-50.888 34.031-90.535 82.394-113.923 138.965s-29.463 118.813-17.458 178.84a309.332 309.332 0 0 0 422.294 224.879 309.362 309.362 0 0 0 138.65-114.306 309.358 309.358 0 0 0 51.716-172.088 309.786 309.786 0 0 0-91.029-218.057 309.756 309.756 0 0 0-218.305-90.423zm0 576a266.666 266.666 0 0 1-261.604-318.379 266.69 266.69 0 0 1 72.742-136.55 266.656 266.656 0 0 1 290.319-58.351 266.701 266.701 0 0 1 119.855 97.839 266.709 266.709 0 0 1 45.355 147.921 266.67 266.67 0 0 1-266.668 266.666v.853zM896 41.818a20.016 20.016 0 0 0-8.145 1.621 20.02 20.02 0 0 0-6.788 4.779l-276.48 276.48a21.118 21.118 0 0 0 0 29.866 21.118 21.118 0 0 0 29.866 0l276.48-276.48a20.479 20.479 0 0 0 4.779-23.071 20.45 20.45 0 0 0-4.779-6.797 20.069 20.069 0 0 0-14.933-6.4z"/><glyph unicode="" glyph-name="squares" d="M390.401 490.666H177.067a71.685 71.685 0 0 0-71.68 71.254v213.333a72.102 72.102 0 0 0 71.679 71.68H390.4a72.108 72.108 0 0 0 71.68-71.68V561.92a71.683 71.683 0 0 0-71.68-71.254zM177.067 804.693a29.445 29.445 0 0 1-20.394-8.619 29.443 29.443 0 0 1-8.619-20.394V562.346a29.015 29.015 0 0 1 29.013-29.013h213.334a29.014 29.014 0 0 1 29.013 29.013V775.68a29.438 29.438 0 0 1-29.013 29.013H177.067zm669.867-314.026H633.601a71.679 71.679 0 0 0-71.68 71.68V775.68a72.109 72.109 0 0 0 71.68 71.679h213.333c18.976-.112 37.143-7.7 50.562-21.118s21.007-31.585 21.118-50.561V562.347a71.687 71.687 0 0 0-20.993-50.687 71.685 71.685 0 0 0-50.687-20.993zM633.601 804.693a29.44 29.44 0 0 1-29.013-29.013V562.347a29.013 29.013 0 0 1 29.013-29.015h213.333a29.018 29.018 0 0 1 20.517 8.498 29.02 29.02 0 0 1 8.498 20.517V775.68a29.44 29.44 0 0 1-29.015 29.013H633.601zm-243.2-755.627H177.067a72.107 72.107 0 0 0-71.679 71.68V334.08a71.678 71.678 0 0 0 71.68 71.253h213.334a71.677 71.677 0 0 0 71.68-71.68V120.32a72.11 72.11 0 0 0-71.68-71.254zm-213.334 313.6a29.006 29.006 0 0 1-20.515-8.498 29.006 29.006 0 0 1-8.498-20.515V120.32a29.44 29.44 0 0 1 29.013-29.015h213.334a29.443 29.443 0 0 1 29.013 29.015v213.333a29.01 29.01 0 0 1-29.013 29.013H177.067zm669.867-313.6H633.601a72.111 72.111 0 0 0-71.68 71.68V334.08a71.678 71.678 0 0 0 71.68 71.253h213.333a71.68 71.68 0 0 0 71.68-71.68V120.32a72.107 72.107 0 0 0-71.68-71.254zM633.601 363.093a29.006 29.006 0 0 1-20.515-8.498 29.006 29.006 0 0 1-8.498-20.515V120.746a29.441 29.441 0 0 1 29.013-29.013h213.333a29.449 29.449 0 0 1 29.015 29.013V334.08a29.01 29.01 0 0 1-29.015 29.013H633.601z"/><glyph unicode="" glyph-name="sword" d="M512 183.04a21.327 21.327 0 0 0-14.933 6.4l-243.2 243.2a21.33 21.33 0 0 0 0 30.294L611.84 825.601a17.496 17.496 0 0 0 14.933 6.4h245.334a21.763 21.763 0 0 0 21.333-21.332L896 567.895a20.48 20.48 0 0 0-6.4-15.36L526.933 189.442a21.757 21.757 0 0 0-14.933-6.4zM298.667 448 512 234.667 853.333 576l-2.56 213.333H637.44L298.667 448zM631.04 64a22.184 22.184 0 0 0-14.933 5.973L134.4 551.68a21.333 21.333 0 0 0 0 30.294 20.479 20.479 0 0 0 29.866 0l482.133-481.706a21.76 21.76 0 0 0 0-30.294 23.034 23.034 0 0 0-15.36-5.973zm-332.373 2.56a21.753 21.753 0 0 0-15.36 6.4L135.253 218.88a21.767 21.767 0 0 0-7.254 15.785c0 11.521 0 13.227 170.667 180.907a21.326 21.326 0 0 0 23.35 4.669 21.357 21.357 0 0 0 6.943-4.669c3.937-4.059 6.137-9.492 6.137-15.146s-2.2-11.087-6.137-15.146c-46.08-47.787-119.893-120.747-148.907-150.614l118.614-116.479 150.613 151.039a21.417 21.417 0 0 0 30.292 0 21.421 21.421 0 0 0 0-30.292L311.465 72.961a21.333 21.333 0 0 0-12.8-6.4zM512 426.667a20.059 20.059 0 0 0-8.144 1.619 20.059 20.059 0 0 0-6.789 4.781 20.475 20.475 0 0 0 0 29.864l170.666 170.667a21.122 21.122 0 0 0 23.015 4.579 21.122 21.122 0 0 0 6.852-34.446L526.933 433.065c-1.905-2.049-4.217-3.678-6.789-4.781s-5.345-1.654-8.144-1.619z"/><glyph unicode="" glyph-name="tiktok" d="M708.267 711.68s21.76-21.333 0 0A182.543 182.543 0 0 0 663.04 832H531.2V302.933a110.584 110.584 0 0 0-33.715-75.644 110.575 110.575 0 0 0-76.79-31.023c-60.587 0-110.933 49.493-110.933 110.933 0 73.387 70.827 128.427 143.785 105.813v134.827c-147.199 19.627-276.052-94.72-276.052-240.64 0-142.08 117.76-243.2 242.773-243.2 133.972 0 242.772 108.8 242.772 243.2v268.373a313.614 313.614 0 0 1 183.467-58.88v131.84s-80.213-3.84-138.24 63.147z"/><glyph unicode="" glyph-name="truck" d="M699.307 306.769H520.534a21.321 21.321 0 0 0-15.083 6.251 21.328 21.328 0 0 0 15.083 36.416h178.773a21.333 21.333 0 0 0 15.087-6.246c3.998-4.002 6.246-9.429 6.246-15.087s-2.249-11.081-6.246-15.083a21.338 21.338 0 0 0-15.087-6.251zm120.32 13.227a16.555 16.555 0 0 0-7.68 0 20.92 20.92 0 0 0-7.095 4.305c-2.052 1.899-3.708 4.186-4.86 6.733s-1.783 5.299-1.856 8.09a20.92 20.92 0 0 0 1.438 8.179l101.547 271.358a21.336 21.336 0 0 0 27.307 12.374 22.208 22.208 0 0 0 11.934-11.313 22.201 22.201 0 0 0 .866-16.42L839.681 333.224a22.194 22.194 0 0 0-8.081-9.566 22.224 22.224 0 0 0-11.972-3.661zM384 311.889a20.938 20.938 0 0 0-12.404 3.968 20.92 20.92 0 0 0-7.65 10.539L229.973 733.438h-128a21.333 21.333 0 0 0-21.334 21.334 21.759 21.759 0 0 0 21.333 21.333h143.36a21.765 21.765 0 0 0 20.053-14.507L405.759 340.05a20.906 20.906 0 0 0-13.226-26.879 19.226 19.226 0 0 0-8.533-1.28zm65.707-191.991a128.008 128.008 0 0 0-71.111 21.568 127.997 127.997 0 0 0-19.397 196.94 127.993 127.993 0 0 0 65.538 35.029c24.829 4.941 50.566 2.406 73.955-7.283a128.002 128.002 0 0 0 41.527-208.768 128.002 128.002 0 0 0-90.513-37.487zm0 213.333a85.334 85.334 0 1 1 70.955-132.745 85.346 85.346 0 0 1-10.611 107.75 85.352 85.352 0 0 1-60.343 24.994zm320.426-213.333a127.976 127.976 0 0 0-118.255 79.014 127.999 127.999 0 0 0-7.287 73.954 128.01 128.01 0 0 0 100.57 100.569 127.966 127.966 0 0 0 73.954-7.283 128.014 128.014 0 0 0 57.446-47.142 128.006 128.006 0 0 0-15.919-161.626 128 128 0 0 0-90.509-37.487zm0 213.333a85.327 85.327 0 0 1-78.839-52.681 85.344 85.344 0 0 1-4.855-49.301c3.294-16.555 11.422-31.761 23.356-43.695s27.136-20.058 43.691-23.351a85.328 85.328 0 0 1 101.982 83.694 85.333 85.333 0 0 1-85.333 85.333z"/><glyph unicode="" glyph-name="twitter" d="M837.675 618.793c.555-7.467.555-14.891.555-22.315 0-227.198-172.928-489.001-488.96-489.001-97.365 0-187.819 28.203-263.936 77.184 13.824-1.579 27.136-2.133 41.515-2.133a344.302 344.302 0 0 1 213.376 73.429c-35.865.649-70.631 12.48-99.446 33.843s-50.238 51.196-61.28 85.325c10.624-1.579 21.291-2.645 32.469-2.645 15.403 0 30.891 2.133 45.269 5.845a171.798 171.798 0 0 0-99.046 59.703 171.806 171.806 0 0 0-38.768 108.956v2.133c22.912-12.757 49.493-20.734 77.653-21.801-23.591 15.674-42.935 36.946-56.305 61.917s-20.353 52.861-20.324 81.186c0 31.915 8.491 61.184 23.381 86.699a488.824 488.824 0 0 1 354.39-179.84c-2.645 12.8-4.267 26.069-4.267 39.381a171.708 171.708 0 0 0 13.06 65.782 171.781 171.781 0 0 0 93.017 93.02 171.787 171.787 0 0 0 65.783 13.059c49.493 0 94.165-20.736 125.568-54.272a339.485 339.485 0 0 1 109.056 41.515 171.517 171.517 0 0 0-75.563-94.72 344.45 344.45 0 0 1 98.944 26.624 368.876 368.876 0 0 0-86.144-88.875z"/><glyph unicode="" glyph-name="views" d="M970.666 423.261a20.053 20.053 0 0 0-4.266-12.8L747.946 118.195a22.19 22.19 0 0 0-7.507-6.432 22.21 22.21 0 0 0-9.558-2.528H293.548a22.173 22.173 0 0 0-17.493 8.96L57.602 410.461a21.764 21.764 0 0 0 0 25.6l218.453 292.267a21.767 21.767 0 0 0 17.494 8.534h437.333a21.757 21.757 0 0 0 17.066-8.533l218.454-292.267a20.905 20.905 0 0 0 4.266-12.8zm-250.452-271.36 202.666 271.36-202.666 270.934H304.213L101.12 423.261l203.093-271.36h416.001zm8.532 271.357a20.053 20.053 0 0 0-4.266-12.8l-97.706-130.986a21.756 21.756 0 0 0-7.549-6.237 21.716 21.716 0 0 0-9.52-2.298H414.294a21.716 21.716 0 0 0-9.52 2.298 21.745 21.745 0 0 0-7.549 6.237l-98.559 130.986a20.481 20.481 0 0 0 0 25.6l97.708 130.56a20.49 20.49 0 0 0 17.065 8.534h195.414a20.499 20.499 0 0 0 17.065-8.534l99.414-130.56a20.9 20.9 0 0 0 3.411-12.8zM597.334 313.603l85.331 109.654-85.331 110.08H426.665l-85.331-110.08 85.331-109.654h170.669z"/><glyph unicode="" glyph-name="waves" d="M746.667 64H277.333a149.331 149.331 0 0 0-149.332 149.333v469.334A149.328 149.328 0 0 0 171.74 788.26a149.328 149.328 0 0 0 105.593 43.739h469.334A149.336 149.336 0 0 0 896 682.667V213.333a149.34 149.34 0 0 0-43.738-105.595A149.336 149.336 0 0 0 746.667 64zM277.333 789.333a106.673 106.673 0 0 1-75.425-31.241 106.673 106.673 0 0 1-31.241-75.425V213.333c0-28.289 11.238-55.42 31.241-75.425a106.673 106.673 0 0 1 75.425-31.241h469.334c28.289 0 55.42 11.238 75.425 31.241a106.673 106.673 0 0 1 31.241 75.425v469.334c0 28.289-11.238 55.42-31.241 75.425a106.673 106.673 0 0 1-75.425 31.241H277.333zm-127.999-546.56a20.505 20.505 0 0 0-8.993 1.97 20.497 20.497 0 0 0-7.221 5.71 20.905 20.905 0 0 0 2.56 29.867L336.214 448a149.333 149.333 0 0 0 209.92-19.2l47.786-57.173c9.073-10.932 20.244-19.933 32.856-26.47s26.406-10.481 40.568-11.595a106.238 106.238 0 0 1 78.47 26.118l114.773 100.267a21.758 21.758 0 0 0 30.293-2.134 20.91 20.91 0 0 0-2.133-29.866L773.974 327.68a148.914 148.914 0 0 0-167.201-20.596 148.912 148.912 0 0 0-46.134 37.237l-48.64 55.893a106.224 106.224 0 0 1-72.049 37.883 106.258 106.258 0 0 1-77.711-24.229l-200.533-166.4a23.05 23.05 0 0 0-12.373-4.694z"/><glyph unicode="" glyph-name="youtube" d="M512.256 148.821h-.853c-2.645 0-267.307.512-334.08 18.645a106.643 106.643 0 0 0-47.7 27.593 106.65 106.65 0 0 0-27.564 47.714A1130.488 1130.488 0 0 0 84.736 448a1136.861 1136.861 0 0 0 17.792 205.525 109.401 109.401 0 0 0 75.349 76.075c64.939 17.067 322.304 17.067 333.227 17.067H512c2.688 0 268.032-.512 334.123-18.645 36.651-9.941 65.28-38.571 75.179-75.221 12.373-68.011 18.219-137.003 17.365-206.123a1133.477 1133.477 0 0 0-17.835-205.269 107.087 107.087 0 0 0-75.392-75.221c-64.853-17.195-322.261-17.365-333.184-17.365zm-85.333 426.966-.213-256 222.379 128-222.165 128z"/></font>
</defs>
</svg>
