<svg width="88" height="88" fill="none" xmlns="http://www.w3.org/2000/svg"><g opacity=".1" stroke="#20263C" stroke-miterlimit="10"><path opacity=".1" d="M87.206 85.171v2.035H85.17"/><path opacity=".1" d="M81.265 87.206H4.987" stroke-dasharray="5.77 5.77"/><path opacity=".1" d="M3.034 87.206H1V85.17"/><path opacity=".1" d="M1 81.265V4.987" stroke-dasharray="5.77 5.77"/><path opacity=".1" d="M1 3.034V1h2.034"/><path opacity=".1" d="M6.947 1h76.271" stroke-dasharray="5.77 5.77"/><path opacity=".1" d="M85.171 1h2.035v2.034"/><path opacity=".1" d="M87.206 6.947v76.271" stroke-dasharray="5.77 5.77"/></g><path d="M34.962 25.683a5.186 5.186 0 0 0-1.646 1.747 5.221 5.221 0 0 0-.687 2.307v4.617c.046.812.282 1.602.687 2.306.405.704.969 1.303 1.646 1.748l4.828 2.862c1.28.744 2.333.133 2.333-1.355V24.271c0-1.489-1.053-2.099-2.333-1.355l-4.828 2.767ZM34.46 39.409a5.049 5.049 0 0 0-4.523 0l-3.859 2.189a4.994 4.994 0 0 0-1.598 1.671 4.938 4.938 0 0 0-.667 2.206v5.364c0 1.423 1.022 2.007 2.265 1.295l13.078-7.48c1.243-.712 1.243-1.87 0-2.582l-4.697-2.663ZM51.996 25.683a5.186 5.186 0 0 1 1.647 1.747c.405.704.64 1.494.687 2.307v4.617a5.219 5.219 0 0 1-.687 2.306 5.185 5.185 0 0 1-1.647 1.748L47.16 41.27c-1.28.744-2.324.133-2.324-1.355V24.271c0-1.489 1.044-2.099 2.324-1.355l4.837 2.767ZM52.059 39.409a5.445 5.445 0 0 1 2.356-.535c.82 0 1.626.183 2.357.535l4.022 2.189a5.078 5.078 0 0 1 1.662 1.672c.408.674.644 1.429.69 2.205v5.364c0 1.423-1.056 2.007-2.352 1.295l-13.63-7.48c-1.296-.712-1.296-1.87 0-2.582l4.895-2.663ZM32.158 59.364a5.059 5.059 0 0 0 4.524 0l3.861-2.196a4.998 4.998 0 0 0 1.596-1.675c.392-.674.619-1.43.662-2.206v-5.356c0-1.422-1.014-2.005-2.258-1.294l-13.084 7.47c-1.244.71-1.244 1.868 0 2.578l4.7 2.678ZM43.48 53.292c.045.774.282 1.527.69 2.2a5.083 5.083 0 0 0 1.66 1.669l4.023 2.203c.73.35 1.537.533 2.356.533s1.626-.183 2.357-.533l4.895-2.686c1.296-.71 1.296-1.866 0-2.576l-13.63-7.465c-1.296-.71-2.352-.128-2.352 1.292v5.363Z" fill="#231F20"/></svg>