<svg width="87" height="87" fill="none" xmlns="http://www.w3.org/2000/svg"><path d="M66.026 56.876a5.538 5.538 0 0 0-3.507-2.465 10.688 10.688 0 0 1-8.002-12.773 5.537 5.537 0 1 0-6.71 4.163 10.687 10.687 0 0 1 8.067 12.81 5.538 5.538 0 1 0 10.152-1.735Z" fill="#414042"/><path d="M31.98 50.729a5.538 5.538 0 0 0 7.937-6.516 10.686 10.686 0 0 1 7.06-13.391 5.538 5.538 0 1 0-6.959-3.692 10.678 10.678 0 0 1-7.05 13.318 5.537 5.537 0 0 0-.988 10.244v.037Z" fill="#414042"/><path d="M46.23 49.824a5.538 5.538 0 0 0-3.895 1.8 10.679 10.679 0 0 1-15.053.544 5.54 5.54 0 0 0-4.005-1.495 5.537 5.537 0 1 0 4.245 9.377 10.696 10.696 0 0 1 15.136-.581 5.537 5.537 0 1 0 3.571-9.645Z" fill="#414042"/></svg>