<svg width="87" height="87" fill="none" xmlns="http://www.w3.org/2000/svg"><path d="M24.445 26.314 16 34.76l8.445 8.445 8.445-8.445-8.445-8.445Z" fill="#414042"/><path d="m32.904 34.755-8.448-8.448a11.943 11.943 0 0 1 0 16.887l-8.448 8.439 8.448 8.448 8.448-8.448 8.448-8.439-8.448-8.439Z" fill="url('#paint0_linear_2813_2538')"/><path d="m61.947 60.1 8.444-8.446-8.444-8.445-8.445 8.445 8.445 8.445Z" fill="#414042"/><path d="m53.503 51.652 8.448 8.438a11.943 11.943 0 0 1 0-16.886l8.449-8.449-8.449-8.448-8.448 8.448-8.438 8.449 8.438 8.448Z" fill="url('#paint1_linear_2813_2538')"/><path d="m26.314 61.956 8.445 8.445 8.444-8.445-8.444-8.445-8.445 8.445Z" fill="#414042"/><path d="m34.76 53.498-8.448 8.449a11.943 11.943 0 0 1 16.887 0l8.438 8.448 8.448-8.448-8.448-8.449L43.2 45.06l-8.439 8.438Z" fill="url('#paint2_linear_2813_2538')"/><path d="M60.099 24.445 51.654 16l-8.445 8.445 8.445 8.445 8.445-8.445Z" fill="#414042"/><path d="m51.656 32.9 8.439-8.449a11.943 11.943 0 0 1-16.887 0l-8.448-8.448-8.448 8.448L34.76 32.9l8.448 8.448 8.448-8.448Z" fill="url('#paint3_linear_2813_2538')"/><defs><linearGradient id="paint0_linear_2813_2538" x1="28.595" y1="58.698" x2="28.803" y2="29.48" gradientUnits="userSpaceOnUse"><stop stop-color="#414042"/><stop offset="1" stop-color="#E6E7E8"/></linearGradient><linearGradient id="paint1_linear_2813_2538" x1="99571.2" y1="12787.1" x2="99561" y2="13829.3" gradientUnits="userSpaceOnUse"><stop stop-color="#414042"/><stop offset="1" stop-color="#E6E7E8"/></linearGradient><linearGradient id="paint2_linear_2813_2538" x1="64165.8" y1="76842.4" x2="63384.2" y2="76838.4" gradientUnits="userSpaceOnUse"><stop stop-color="#414042"/><stop offset="1" stop-color="#E6E7E8"/></linearGradient><linearGradient id="paint3_linear_2813_2538" x1="52328.6" y1="-39754.5" x2="53110.5" y2="-39750.3" gradientUnits="userSpaceOnUse"><stop stop-color="#414042"/><stop offset="1" stop-color="#E6E7E8"/></linearGradient></defs></svg>