<svg width="87" height="87" fill="none" xmlns="http://www.w3.org/2000/svg"><path opacity=".95" d="M27.934 57.373v7.9l6.836-3.954v-7.893l-6.836 3.947Z" fill="#414042"/><path opacity=".5" d="M26.836 57.373v7.9L20 61.319v-7.893l6.836 3.947Z" fill="#414042"/><path opacity=".3" d="M27.934 48.842v7.263l6.293-3.635-6.293-3.628Z" fill="#414042"/><path opacity=".75" d="m26.836 48.842-6.293 3.628 6.293 3.635v-7.263Z" fill="#414042"/><path opacity=".95" d="M26.836 46.902v-7.9L20 42.955v7.894l6.836-3.947ZM27.934 28.531v7.9l6.836-3.953v-7.894l-6.836 3.947Z" fill="#414042"/><path opacity=".5" d="M26.836 28.531v7.9L20 32.478v-7.894l6.836 3.947Z" fill="#414042"/><path opacity=".3" d="M27.934 20v7.263l6.293-3.635L27.934 20Z" fill="#414042"/><path opacity=".75" d="m26.836 20-6.293 3.628 6.293 3.635V20ZM20.543 34.051v7.27l6.293-3.635-6.293-3.635Z" fill="#414042"/><path opacity=".15" d="m34.227 34.051-6.293 3.635 6.293 3.635v-7.27Z" fill="#414042"/><path opacity=".5" d="M27.934 46.902v-7.9l6.836 3.953v7.894l-6.836-3.947Z" fill="#414042"/><path opacity=".95" d="M43.87 57.373v7.9l6.836-3.954v-7.893l-6.835 3.947Z" fill="#414042"/><path opacity=".5" d="M42.772 57.373v7.9l-6.836-3.954v-7.893l6.836 3.947Z" fill="#414042"/><path opacity=".3" d="M43.87 48.842v7.263l6.294-3.635-6.293-3.628Z" fill="#414042"/><path opacity=".75" d="M42.772 48.842 36.48 52.47l6.293 3.635v-7.263Z" fill="#414042"/><path opacity=".95" d="M42.772 46.902v-7.9l-6.836 3.953v7.894l6.836-3.947ZM43.87 28.531v7.9l6.836-3.953v-7.894l-6.835 3.947Z" fill="#414042"/><path opacity=".5" d="M42.772 28.531v7.9l-6.836-3.953v-7.894l6.836 3.947Z" fill="#414042"/><path opacity=".3" d="M43.87 20v7.263l6.294-3.635L43.87 20Z" fill="#414042"/><path opacity=".75" d="m42.772 20-6.293 3.628 6.293 3.635V20ZM36.479 34.051v7.27l6.293-3.635-6.293-3.635Z" fill="#414042"/><path opacity=".15" d="m50.164 34.051-6.293 3.635 6.293 3.635v-7.27Z" fill="#414042"/><path opacity=".5" d="M43.87 46.902v-7.9l6.836 3.953v7.894l-6.835-3.947Z" fill="#414042"/><path opacity=".95" d="M59.577 57.373v7.9l6.842-3.954v-7.893l-6.842 3.947Z" fill="#414042"/><path opacity=".5" d="M58.485 57.373v7.9l-6.843-3.954v-7.893l6.843 3.947Z" fill="#414042"/><path opacity=".3" d="M59.577 48.842v7.263l6.293-3.635-6.294-3.628Z" fill="#414042"/><path opacity=".75" d="M58.485 48.842 52.19 52.47l6.294 3.635v-7.263Z" fill="#414042"/><path opacity=".95" d="M58.485 46.902v-7.9l-6.843 3.953v7.894l6.843-3.947ZM59.577 28.531v7.9l6.842-3.953v-7.894l-6.842 3.947Z" fill="#414042"/><path opacity=".5" d="M58.485 28.531v7.9l-6.843-3.953v-7.894l6.843 3.947Z" fill="#414042"/><path opacity=".3" d="M59.577 20v7.263l6.293-3.635L59.576 20Z" fill="#414042"/><path opacity=".75" d="m58.485 20-6.294 3.628 6.294 3.635V20ZM52.191 34.051v7.27l6.294-3.635-6.294-3.635Z" fill="#414042"/><path opacity=".15" d="m65.87 34.051-6.294 3.635 6.294 3.635v-7.27Z" fill="#414042"/><path opacity=".5" d="M59.577 46.902v-7.9l6.842 3.953v7.894l-6.842-3.947Z" fill="#414042"/></svg>