<svg width="88" height="88" fill="none" xmlns="http://www.w3.org/2000/svg"><g opacity=".1" stroke="#20263C" stroke-miterlimit="10"><path opacity=".1" d="M87.206 85.172v2.034H85.17"/><path opacity=".1" d="M81.259 87.206H4.988" stroke-dasharray="5.77 5.77"/><path opacity=".1" d="M3.034 87.206H1v-2.034"/><path opacity=".1" d="M1 81.259V4.988" stroke-dasharray="5.77 5.77"/><path opacity=".1" d="M1 3.035V1h2.034"/><path opacity=".1" d="M6.94 1h76.278" stroke-dasharray="5.77 5.77"/><path opacity=".1" d="M85.171 1h2.035v2.034"/><path opacity=".1" d="M87.206 6.94v76.278" stroke-dasharray="5.77 5.77"/></g><path d="M43.723 55.481a8.088 8.088 0 0 1-3.8-.933 8.447 8.447 0 0 1-2.978-2.629l-5.428 3.243c.206.248.45.459.723.623l9.66 5.792c.564.3 1.19.456 1.823.456.634 0 1.259-.156 1.824-.456l9.66-5.792c.272-.164.516-.375.723-.623l-5.414-3.3a8.453 8.453 0 0 1-2.976 2.663 8.09 8.09 0 0 1-3.817.956ZM35.224 46.74c.005-2.059.806-4.044 2.248-5.576 1.443-1.532 3.427-2.503 5.573-2.727v-6.242a3.337 3.337 0 0 0-.929.332l-10.07 5.536a4.151 4.151 0 0 0-1.33 1.36 3.93 3.93 0 0 0-.556 1.782v11.071c.005.32.058.637.16.941l5.659-3.114a7.978 7.978 0 0 1-.755-3.363ZM55.5 38.059l-9.54-5.532a3.052 3.052 0 0 0-.88-.332v6.224c1.296.147 2.539.6 3.63 1.319a8.36 8.36 0 0 1 2.65 2.824 8.418 8.418 0 0 1 .414 7.544l5.36 3.111c.097-.304.148-.62.152-.94V41.212A4.083 4.083 0 0 0 55.5 38.06Z" fill="#414042"/><path d="m62.448 32.514-15.749-9.108a6.63 6.63 0 0 0-5.952 0l-15.749 9.108a6.583 6.583 0 0 0-2.976 5.146v18.216a6.605 6.605 0 0 0 2.976 5.16l15.75 9.108a6.63 6.63 0 0 0 5.951 0l15.749-9.108a6.596 6.596 0 0 0 2.976-5.16V37.66a6.592 6.592 0 0 0-2.976-5.146Zm-2.022 21.267a5.092 5.092 0 0 1-2.293 3.962l-12.132 7.013a5.065 5.065 0 0 1-4.57 0l-12.118-7.013a5.086 5.086 0 0 1-2.293-3.962V39.77a5.091 5.091 0 0 1 2.293-3.963l12.103-7.013a5.065 5.065 0 0 1 4.571 0l12.132 7.013a5.086 5.086 0 0 1 2.307 3.962v14.012Z" fill="#414042"/><path d="M37.62 46.775a5.54 5.54 0 0 0 1.028 3.202 6.042 6.042 0 0 0 2.74 2.123 6.44 6.44 0 0 0 3.526.328 6.222 6.222 0 0 0 3.125-1.577 5.672 5.672 0 0 0 1.67-2.951 5.467 5.467 0 0 0-.347-3.33 5.848 5.848 0 0 0-2.248-2.588 6.361 6.361 0 0 0-3.39-.971c-1.62 0-3.172.607-4.316 1.688-1.145 1.081-1.788 2.547-1.788 4.076Z" fill="#414042"/></svg>