<svg width="88" height="88" fill="none" xmlns="http://www.w3.org/2000/svg"><g opacity=".1" stroke="#20263C" stroke-miterlimit="10"><path opacity=".1" d="M87.206 85.178v2.035H85.17"/><path opacity=".1" d="M81.259 87.213H4.987" stroke-dasharray="5.77 5.77"/><path opacity=".1" d="M3.034 87.213H1v-2.035"/><path opacity=".1" d="M1 81.266V4.995" stroke-dasharray="5.77 5.77"/><path opacity=".1" d="M1 3.034V1h2.034"/><path opacity=".1" d="M6.94 1h76.278" stroke-dasharray="5.77 5.77"/><path opacity=".1" d="M85.171 1h2.035v2.034"/><path opacity=".1" d="M87.206 6.947v76.271" stroke-dasharray="5.77 5.77"/></g><path opacity=".8" d="M43.811 15.92 20.665 31.258v.028l17.898 11.855 5.248-3.484V15.92ZM20.665 55.04l23.146 15.325V46.626l-5.248-3.484-17.898 11.855v.043ZM69.227 31.634 46.08 16.295v23.74l5.263 3.483 17.883-11.855v-.029ZM46.081 70.741l23.146-15.34v-.028L51.344 43.518l-5.263 3.484v23.74Z" fill="#A7A9AC"/><path opacity=".8" d="M20.665 31.287v23.71l17.898-11.855-17.898-11.855ZM69.228 55.373v-23.71L51.344 43.518l17.884 11.855Z" fill="#414042"/></svg>